<mxfile host="Electron" agent="Mozilla/5.0 (Windows NT 10.0; Win64; x64) AppleWebKit/537.36 (KHTML, like Gecko) draw.io/24.7.5 Chrome/126.0.6478.183 Electron/31.3.0 Safari/537.36" version="24.7.5">
  <diagram name="Page-1" id="LGalprOqoISpr3-6fleb">
    <mxGraphModel dx="1687" dy="984" grid="1" gridSize="10" guides="1" tooltips="1" connect="1" arrows="1" fold="1" page="1" pageScale="1" pageWidth="1100" pageHeight="1700" background="#000000" math="0" shadow="0">
      <root>
        <mxCell id="0" />
        <mxCell id="1" parent="0" />
        <mxCell id="MmuThc95kzTmX1_OjOYl-1" value="END" style="ellipse;whiteSpace=wrap;html=1;aspect=fixed;fillColor=#60a917;fontColor=#ffffff;strokeColor=#a80575;strokeWidth=9;shadow=0;" vertex="1" parent="1">
          <mxGeometry x="140" y="1340" width="80" height="80" as="geometry" />
        </mxCell>
        <mxCell id="MmuThc95kzTmX1_OjOYl-24" style="edgeStyle=orthogonalEdgeStyle;rounded=0;orthogonalLoop=1;jettySize=auto;html=1;exitX=0.5;exitY=1;exitDx=0;exitDy=0;entryX=0.5;entryY=0;entryDx=0;entryDy=0;" edge="1" parent="1" source="MmuThc95kzTmX1_OjOYl-2" target="MmuThc95kzTmX1_OjOYl-6">
          <mxGeometry relative="1" as="geometry" />
        </mxCell>
        <mxCell id="MmuThc95kzTmX1_OjOYl-2" value="Begin" style="ellipse;whiteSpace=wrap;html=1;aspect=fixed;fillColor=#60a917;fontColor=#ffffff;strokeColor=#FF0080;strokeWidth=9;" vertex="1" parent="1">
          <mxGeometry x="210" y="40" width="80" height="80" as="geometry" />
        </mxCell>
        <mxCell id="MmuThc95kzTmX1_OjOYl-28" style="edgeStyle=orthogonalEdgeStyle;rounded=0;orthogonalLoop=1;jettySize=auto;html=1;exitX=0.5;exitY=1;exitDx=0;exitDy=0;entryX=0.5;entryY=0;entryDx=0;entryDy=0;" edge="1" parent="1" source="MmuThc95kzTmX1_OjOYl-3" target="MmuThc95kzTmX1_OjOYl-7">
          <mxGeometry relative="1" as="geometry" />
        </mxCell>
        <mxCell id="MmuThc95kzTmX1_OjOYl-3" value="INPUT grocery" style="shape=parallelogram;perimeter=parallelogramPerimeter;whiteSpace=wrap;html=1;fixedSize=1;fillColor=#0050ef;fontColor=#ffffff;strokeColor=#001DBC;strokeWidth=8;" vertex="1" parent="1">
          <mxGeometry x="360" y="510" width="170" height="70" as="geometry" />
        </mxCell>
        <mxCell id="MmuThc95kzTmX1_OjOYl-27" style="edgeStyle=orthogonalEdgeStyle;rounded=0;orthogonalLoop=1;jettySize=auto;html=1;exitX=0.5;exitY=1;exitDx=0;exitDy=0;entryX=0.5;entryY=0;entryDx=0;entryDy=0;" edge="1" parent="1" source="MmuThc95kzTmX1_OjOYl-4" target="MmuThc95kzTmX1_OjOYl-3">
          <mxGeometry relative="1" as="geometry" />
        </mxCell>
        <mxCell id="MmuThc95kzTmX1_OjOYl-4" value="&amp;nbsp;INPUT utilities" style="shape=parallelogram;perimeter=parallelogramPerimeter;whiteSpace=wrap;html=1;fixedSize=1;fillColor=#0050ef;fontColor=#ffffff;strokeColor=#001DBC;strokeWidth=8;" vertex="1" parent="1">
          <mxGeometry x="365" y="400" width="160" height="70" as="geometry" />
        </mxCell>
        <mxCell id="MmuThc95kzTmX1_OjOYl-26" style="edgeStyle=orthogonalEdgeStyle;rounded=0;orthogonalLoop=1;jettySize=auto;html=1;exitX=0.5;exitY=1;exitDx=0;exitDy=0;entryX=0.5;entryY=0;entryDx=0;entryDy=0;" edge="1" parent="1" source="MmuThc95kzTmX1_OjOYl-5" target="MmuThc95kzTmX1_OjOYl-4">
          <mxGeometry relative="1" as="geometry" />
        </mxCell>
        <mxCell id="MmuThc95kzTmX1_OjOYl-5" value="INPUT rent" style="shape=parallelogram;perimeter=parallelogramPerimeter;whiteSpace=wrap;html=1;fixedSize=1;fillColor=#0050ef;fontColor=#ffffff;strokeColor=#001DBC;strokeWidth=8;" vertex="1" parent="1">
          <mxGeometry x="365" y="290" width="160" height="70" as="geometry" />
        </mxCell>
        <mxCell id="MmuThc95kzTmX1_OjOYl-25" style="edgeStyle=orthogonalEdgeStyle;rounded=0;orthogonalLoop=1;jettySize=auto;html=1;exitX=0.5;exitY=1;exitDx=0;exitDy=0;entryX=0.5;entryY=0;entryDx=0;entryDy=0;" edge="1" parent="1" source="MmuThc95kzTmX1_OjOYl-6" target="MmuThc95kzTmX1_OjOYl-5">
          <mxGeometry relative="1" as="geometry" />
        </mxCell>
        <mxCell id="MmuThc95kzTmX1_OjOYl-6" value="INPUT monthlypay" style="shape=parallelogram;perimeter=parallelogramPerimeter;whiteSpace=wrap;html=1;fixedSize=1;fillColor=#0050ef;fontColor=#ffffff;strokeColor=#001DBC;strokeWidth=8;" vertex="1" parent="1">
          <mxGeometry x="362.5" y="190" width="160" height="70" as="geometry" />
        </mxCell>
        <mxCell id="MmuThc95kzTmX1_OjOYl-29" style="edgeStyle=orthogonalEdgeStyle;rounded=0;orthogonalLoop=1;jettySize=auto;html=1;exitX=0.5;exitY=1;exitDx=0;exitDy=0;entryX=0.5;entryY=0;entryDx=0;entryDy=0;" edge="1" parent="1" source="MmuThc95kzTmX1_OjOYl-7" target="MmuThc95kzTmX1_OjOYl-8">
          <mxGeometry relative="1" as="geometry" />
        </mxCell>
        <mxCell id="MmuThc95kzTmX1_OjOYl-7" value="Totalbills = rent + utlilities + grocery" style="shape=process;whiteSpace=wrap;html=1;backgroundOutline=1;fillColor=#6a00ff;fontColor=#ffffff;strokeColor=#3700CC;strokeWidth=9;opacity=80;" vertex="1" parent="1">
          <mxGeometry x="277.5" y="680" width="335" height="60" as="geometry" />
        </mxCell>
        <mxCell id="MmuThc95kzTmX1_OjOYl-30" style="edgeStyle=orthogonalEdgeStyle;rounded=0;orthogonalLoop=1;jettySize=auto;html=1;exitX=0.5;exitY=1;exitDx=0;exitDy=0;entryX=0.5;entryY=0;entryDx=0;entryDy=0;" edge="1" parent="1" source="MmuThc95kzTmX1_OjOYl-8" target="MmuThc95kzTmX1_OjOYl-11">
          <mxGeometry relative="1" as="geometry" />
        </mxCell>
        <mxCell id="MmuThc95kzTmX1_OjOYl-8" value="Discretionaryspending = monthlypay - Totalbills" style="shape=process;whiteSpace=wrap;html=1;backgroundOutline=1;fillColor=#6a00ff;fontColor=#ffffff;strokeColor=#3700CC;strokeWidth=9;opacity=80;" vertex="1" parent="1">
          <mxGeometry x="277.5" y="780" width="335" height="60" as="geometry" />
        </mxCell>
        <mxCell id="MmuThc95kzTmX1_OjOYl-32" style="edgeStyle=orthogonalEdgeStyle;rounded=0;orthogonalLoop=1;jettySize=auto;html=1;exitX=0.5;exitY=1;exitDx=0;exitDy=0;entryX=0.5;entryY=0;entryDx=0;entryDy=0;" edge="1" parent="1" source="MmuThc95kzTmX1_OjOYl-9" target="MmuThc95kzTmX1_OjOYl-10">
          <mxGeometry relative="1" as="geometry" />
        </mxCell>
        <mxCell id="MmuThc95kzTmX1_OjOYl-9" value="OUTPUT totalbills" style="shape=parallelogram;perimeter=parallelogramPerimeter;whiteSpace=wrap;html=1;fixedSize=1;fillColor=#a20025;fontColor=#ffffff;strokeColor=#6F0000;strokeWidth=9;" vertex="1" parent="1">
          <mxGeometry x="360" y="1050" width="170" height="70" as="geometry" />
        </mxCell>
        <mxCell id="MmuThc95kzTmX1_OjOYl-34" style="edgeStyle=orthogonalEdgeStyle;rounded=0;orthogonalLoop=1;jettySize=auto;html=1;exitX=0.5;exitY=1;exitDx=0;exitDy=0;" edge="1" parent="1" source="MmuThc95kzTmX1_OjOYl-10" target="MmuThc95kzTmX1_OjOYl-1">
          <mxGeometry relative="1" as="geometry" />
        </mxCell>
        <mxCell id="MmuThc95kzTmX1_OjOYl-10" value="&amp;nbsp;OUTPUT Discretionaryspending" style="shape=parallelogram;perimeter=parallelogramPerimeter;whiteSpace=wrap;html=1;fixedSize=1;fillColor=#a20025;fontColor=#ffffff;strokeColor=#6F0000;strokeWidth=9;" vertex="1" parent="1">
          <mxGeometry x="365" y="1160" width="160" height="80" as="geometry" />
        </mxCell>
        <mxCell id="MmuThc95kzTmX1_OjOYl-31" style="edgeStyle=orthogonalEdgeStyle;rounded=0;orthogonalLoop=1;jettySize=auto;html=1;exitX=0.5;exitY=1;exitDx=0;exitDy=0;entryX=0.5;entryY=0;entryDx=0;entryDy=0;" edge="1" parent="1" source="MmuThc95kzTmX1_OjOYl-11" target="MmuThc95kzTmX1_OjOYl-9">
          <mxGeometry relative="1" as="geometry" />
        </mxCell>
        <mxCell id="MmuThc95kzTmX1_OjOYl-11" value="OUTPUT monthlypay" style="shape=parallelogram;perimeter=parallelogramPerimeter;whiteSpace=wrap;html=1;fixedSize=1;fillColor=#a20025;fontColor=#ffffff;strokeColor=#6F0000;strokeWidth=9;" vertex="1" parent="1">
          <mxGeometry x="355" y="940" width="180" height="70" as="geometry" />
        </mxCell>
      </root>
    </mxGraphModel>
  </diagram>
</mxfile>
